<svg viewBox="0 0 24 24" xmlns="http://www.w3.org/2000/svg"><path fill="#DBBEEE" fill-rule="evenodd" d="M11.99 1c-6.08 0-11 4.92-11 11 0 4.86 3.15 8.98 7.52 10.43 .55.1.75-.24.75-.54 0-.27-.01-.96-.02-1.88 -3.06.66-3.71-1.48-3.71-1.48 -.51-1.28-1.23-1.61-1.23-1.61 -1-.69.07-.67.07-.67 1.1.07 1.68 1.13 1.68 1.13 .98 1.68 2.57 1.19 3.2.91 .09-.72.38-1.2.69-1.48 -2.45-.28-5.02-1.23-5.02-5.44 0-1.21.42-2.19 1.13-2.96 -.12-.28-.5-1.4.1-2.92 0 0 .92-.3 3.02 1.12 .87-.25 1.81-.37 2.75-.38 .93 0 1.87.12 2.75.37 2.1-1.43 3.02-1.13 3.02-1.13 .6 1.51.22 2.63.11 2.91 .7.76 1.13 1.75 1.13 2.95 0 4.22-2.58 5.15-5.03 5.42 .39.33.74 1.01.74 2.03 0 1.47-.02 2.65-.02 3.01 0 .29.19.63.75.52 4.36-1.46 7.51-5.58 7.51-10.44C22.88 5.79 17.95.86 11.87.86"/></svg>