<svg viewBox="0 0 24 24" xmlns="http://www.w3.org/2000/svg"><path fill="none" stroke="#310068" stroke-width="2" d="M18.34 15.95c.41-.9.65-1.9.65-2.96 0-3.87-3.14-7-7-7 -3.87 0-7 3.13-7 7 0 1.11.26 2.17.72 3.1v0m6.27-13.11c.55 0 1-.45 1-1 0-.56-.45-1-1-1 -.56 0-1 .44-1 1 0 .55.44 1 1 1Zm0 20c.55 0 1-.45 1-1 0-.56-.45-1-1-1 -.56 0-1 .44-1 1 0 .55.44 1 1 1Zm0-17v-3m-3 11c.55 0 1-.45 1-1 0-.56-.45-1-1-1 -.56 0-1 .44-1 1 0 .55.44 1 1 1Zm6 0c.55 0 1-.45 1-1 0-.56-.45-1-1-1 -.56 0-1 .44-1 1 0 .55.44 1 1 1Zm-9 4.98l-1-2.99s.07-.78.5-.5c.93.59 3.07 1.5 6.5 1.5 3.55 0 5.61-.92 6.5-1.5 .35-.24.5.5.5.5l-1 2.98s-1 2.01-6 2.01c-5.01 0-6-2.02-6-2.02Z"/></svg>